<svg width="360" height="79" viewBox="0 0 360 79" fill="none" xmlns="http://www.w3.org/2000/svg">
<g clip-path="url(#clip0_19_1110)">
<path d="M99.5227 24.6651C103.031 24.6651 104.964 22.8778 104.964 19.5891V11.7249H102.1V19.5891C102.1 21.5194 101.384 22.3058 99.5227 22.3058C97.3031 22.3058 96.9451 20.9475 96.9451 19.5891V11.7249H94.0812V19.5891C94.1528 22.8778 96.0144 24.6651 99.5227 24.6651Z" fill="#007BC0"/>
<path d="M116.492 20.0896L111.265 11.6534H108.473V24.3792H111.122V15.943L116.348 24.3077V24.3792H119.212V11.6534H116.492V20.0896Z" fill="#007BC0"/>
<path d="M126.516 11.6534H123.652V24.3077H126.516V11.6534Z" fill="#007BC0"/>
<path d="M133.675 24.3792H136.897L141.05 11.7249L141.122 11.6534H138.115L135.322 20.5186L132.53 11.6534H129.594L133.675 24.3077V24.3792Z" fill="#007BC0"/>
<path d="M153.652 21.9485H146.85V18.9458H152.936V16.658H146.85V14.0842H153.508V11.6534H143.986V24.3792H153.652V21.9485Z" fill="#007BC0"/>
<path d="M159.952 19.4461H162.673C163.962 19.4461 164.535 19.9466 164.749 21.3049C164.821 21.6624 164.821 22.0199 164.821 22.3059C164.893 23.0208 164.964 23.7357 165.179 24.3077H168.043L167.971 24.2362C167.542 23.6642 167.542 22.5203 167.47 21.7339C167.47 21.5909 167.47 21.4479 167.47 21.3049C167.327 19.6606 166.754 18.6597 165.68 18.3737C166.969 17.8018 167.613 16.7294 167.613 15.228C167.613 13.1547 166.038 11.7249 163.89 11.7249H157.017V24.3077H159.881L159.952 19.4461ZM159.952 13.8696H162.959C164.248 13.8696 164.821 14.4416 164.821 15.5855C164.821 16.8009 164.248 17.3728 162.959 17.3728H159.952V13.8696Z" fill="#007BC0"/>
<path d="M175.704 24.6652C178.998 24.6652 181.002 23.0924 181.002 20.5901C181.002 17.8019 178.353 17.1584 177.351 16.8724L176.921 16.801C173.986 16.086 173.484 15.943 173.484 15.0136C173.484 14.0127 174.487 13.6553 175.346 13.6553C176.921 13.6553 177.709 14.2272 177.78 15.5141V15.5856H180.573V15.5141C180.573 12.9403 178.64 11.439 175.489 11.439C173.126 11.439 170.764 12.7973 170.764 15.2996C170.764 17.7304 172.697 18.4453 174.558 18.9458C174.845 19.0172 175.131 19.0887 175.346 19.1602C176.921 19.5177 178.282 19.8752 178.282 21.0191C178.282 22.4489 176.42 22.5204 175.847 22.5204C174.129 22.5204 173.126 21.6625 173.126 20.2326V20.1611H170.334V20.2326C170.334 21.448 170.692 22.4489 171.48 23.2353C172.41 24.0933 173.914 24.6652 175.704 24.6652Z" fill="#007BC0"/>
<path d="M187.375 11.6534H184.511V24.3077H187.375V11.6534Z" fill="#007BC0"/>
<path d="M193.747 24.3792H196.611V14.0842H200.406V11.6534H189.952V14.0842H193.747V24.3792Z" fill="#007BC0"/>
<path d="M200.334 24.3792H203.27L204.272 21.5909H208.926L209.857 24.3792H212.792L208.067 11.7249H205.131L200.334 24.3792ZM204.916 19.3746L206.492 14.8706L208.067 19.3746H204.916Z" fill="#007BC0"/>
<path d="M216.587 24.3792H219.451V14.0842H223.246V11.6534H212.864V14.0842H216.587V24.3792Z" fill="#007BC0"/>
<path d="M234.057 19.8037H236.921C240.143 19.8037 241.36 17.7304 241.36 15.7286C241.36 13.7267 240.215 11.6534 236.921 11.6534H231.193V24.3077H234.057V19.8037ZM234.057 13.8697H236.205C237.422 13.8697 238.64 14.0842 238.64 15.7286C238.64 17.3729 237.422 17.5874 236.205 17.5874H234.057V13.8697Z" fill="#007BC0"/>
<path d="M249.021 24.6652C252.673 24.6652 255.251 21.9484 255.251 18.0878C255.251 14.0842 252.745 11.3674 249.021 11.3674C245.298 11.3674 242.792 14.0842 242.792 18.0878C242.792 21.9484 245.37 24.6652 249.021 24.6652ZM245.656 18.0878C245.656 17.0869 245.871 13.7982 249.021 13.7982C252.172 13.7982 252.387 17.0869 252.387 18.0878C252.387 20.0896 251.527 22.2344 249.021 22.2344C246.515 22.2344 245.656 20.0896 245.656 18.0878Z" fill="#007BC0"/>
<path d="M260.692 11.6534H257.828V24.3792H266.778V21.9485H260.692V11.6534Z" fill="#007BC0"/>
<path d="M272.148 11.6534H269.284V24.3077H272.148V11.6534Z" fill="#007BC0"/>
<path d="M274.94 14.0842H278.735V24.3792H281.527V14.0842H285.322V11.6534H274.94V14.0842Z" fill="#007BC0"/>
<path d="M290.764 18.9458H296.85V16.658H290.764V14.0842H297.422V11.6534H287.9V24.3792H297.566V21.9485H290.764V18.9458Z" fill="#007BC0"/>
<path d="M293.914 10.581L292.124 8.0072H289.26L292.052 10.581H293.914Z" fill="#007BC0"/>
<path d="M308.735 19.4461C308.52 21.2335 307.446 22.2344 305.943 22.2344C303.437 22.2344 302.578 20.0896 302.578 18.0878C302.578 17.0868 302.792 13.7982 305.943 13.7982C307.303 13.7982 308.52 14.7276 308.664 15.943H311.456V15.8715C311.169 13.0832 308.95 11.2959 305.943 11.2959C302.22 11.2959 299.714 14.0126 299.714 18.0163C299.714 21.8769 302.291 24.5936 305.943 24.5936C309.021 24.5936 311.241 22.5203 311.527 19.3746V19.3031L308.735 19.4461Z" fill="#007BC0"/>
<path d="M322.052 20.0896L316.826 11.6534H313.962V24.3792H316.683V15.943L321.909 24.3077V24.3792H324.702V11.6534H322.052V20.0896Z" fill="#007BC0"/>
<path d="M331.647 11.6534H328.783V24.3077H331.647V11.6534Z" fill="#007BC0"/>
<path d="M343.747 19.4461C343.532 21.2335 342.458 22.2344 340.955 22.2344C338.449 22.2344 337.59 20.0896 337.59 18.0878C337.59 17.0868 337.804 13.7982 340.955 13.7982C342.315 13.7982 343.461 14.7276 343.675 15.943H346.468V15.8715C346.181 13.0832 343.962 11.2959 340.955 11.2959C337.232 11.2959 334.726 14.0126 334.726 18.0163C334.726 21.8769 337.303 24.5936 340.955 24.5936C344.033 24.5936 346.253 22.5203 346.539 19.3746V19.3031L343.747 19.4461Z" fill="#007BC0"/>
<path d="M355.274 11.6534H352.339L347.542 24.3077V24.3792H350.406L351.408 21.591H356.062L356.993 24.3792H359.928L355.274 11.6534ZM355.274 19.3747H352.124L353.699 14.8706L355.274 19.3747Z" fill="#007BC0"/>
<path d="M99.6658 33.1729H94.1527V45.8271H99.6658C103.246 45.8271 105.465 43.3964 105.465 39.3928C105.465 35.4606 103.246 33.1729 99.6658 33.1729ZM97.0167 35.5321H98.9498C101.456 35.5321 102.53 36.819 102.53 39.6787C102.53 42.038 101.384 43.3964 99.451 43.3964H97.0167V35.5321Z" fill="#007BC0"/>
<path d="M110.835 40.3937H116.921V38.1774H110.835V35.5321H117.494V33.1729H107.971V45.8271H117.637V43.3964H110.835V40.3937Z" fill="#007BC0"/>
<path d="M136.969 40.9656L134.177 40.8941C133.962 42.6815 132.888 43.6824 131.384 43.6824C128.878 43.6824 128.019 41.5376 128.019 39.5358C128.019 38.5348 128.234 35.2462 131.384 35.2462C132.745 35.2462 133.962 36.1756 134.105 37.391H136.897V37.3195C136.611 34.5312 134.391 32.7439 131.384 32.7439C127.661 32.7439 125.155 35.4606 125.155 39.4643C125.155 43.3249 127.733 46.0416 131.384 46.0416C134.463 46.1131 136.683 44.1113 136.969 40.9656Z" fill="#007BC0"/>
<path d="M150.215 45.8271L145.489 33.1729H142.554L137.828 45.7557V45.8271H140.692L141.694 43.0389H146.348L147.279 45.8271H150.215ZM145.561 40.8941H142.41L143.986 36.39L145.561 40.8941Z" fill="#007BC0"/>
<path d="M160.74 33.1729H150.286V35.5321H154.081V45.8271H156.945V35.5321H160.74V33.1729Z" fill="#007BC0"/>
<path d="M160.525 45.7557L163.389 45.8271L164.391 43.0389H169.045L169.976 45.8271H172.912L168.258 33.1729H165.322L160.525 45.7557ZM165.107 40.8941L166.683 36.39L168.258 40.8941H165.107Z" fill="#007BC0"/>
<path d="M174.988 33.1729V45.8271H184.01V43.3964H177.852V33.1729H174.988Z" fill="#007BC0"/>
<path d="M193.246 41.0371C193.246 42.9674 192.53 43.7538 190.668 43.7538C188.377 43.7538 188.091 42.3955 188.091 41.0371V33.1729H185.227V41.0371C185.227 44.3973 187.088 46.1131 190.668 46.1131C194.177 46.1131 196.11 44.3258 196.11 41.0371V33.1729H193.246V41.0371Z" fill="#007BC0"/>
<path d="M207.924 41.5376L202.697 33.1729H199.833V45.8271H202.554V37.4624L207.709 45.8271H207.781H210.573V33.1729H207.924V41.5376Z" fill="#007BC0"/>
<path d="M224.678 33.1729H221.527L218.592 38.1059L215.656 33.1729H212.434L217.088 40.8941V45.8271H219.952V40.9656L224.678 33.1729Z" fill="#007BC0"/>
<path d="M236.492 45.8271L231.766 33.1729H228.831L224.033 45.7557V45.8271H226.897L227.9 43.0389H232.554L233.485 45.8271H236.492ZM231.766 40.8941H228.616L230.191 36.39L231.766 40.8941Z" fill="#007BC0"/>
<path d="M101.957 60.5547C102.53 60.3403 102.959 59.9828 103.317 59.4823C103.675 58.9819 103.819 58.4099 103.819 57.695C103.819 57.0516 103.675 56.4796 103.389 56.0507C103.103 55.6217 102.745 55.2642 102.315 55.0498C102.1 54.9068 101.885 54.8353 101.599 54.7638C101.313 54.6923 101.026 54.6923 100.74 54.6208C100.453 54.6208 100.095 54.5493 99.809 54.5493C99.5226 54.5493 99.2362 54.5493 98.9498 54.5493H94.2959V67.2036H100.453C101.098 67.2036 101.671 67.1321 102.1 66.9176C102.601 66.7032 102.959 66.4172 103.317 66.1312C103.675 65.7737 103.89 65.4163 104.033 64.9873C104.177 64.5584 104.248 64.1294 104.248 63.629C104.248 62.8425 104.033 62.1991 103.604 61.6271C103.317 61.1267 102.745 60.7692 101.957 60.5547ZM96.0859 61.4842H99.8806C100.239 61.4842 100.597 61.4842 100.883 61.5556C101.169 61.6271 101.527 61.6986 101.742 61.9131C101.957 62.0561 102.172 62.2706 102.315 62.5566C102.458 62.8425 102.53 63.1285 102.53 63.5575C102.53 64.2724 102.315 64.7728 101.885 65.2018C101.456 65.5593 100.883 65.7737 100.167 65.7737H96.0143V61.4842H96.0859ZM101.456 59.5538C101.026 59.9113 100.382 60.0543 99.451 60.0543H96.1575V56.1222H99.451C99.809 56.1222 100.167 56.1222 100.453 56.1937C100.74 56.2652 101.026 56.3366 101.313 56.4796C101.527 56.6226 101.742 56.8371 101.885 57.0516C102.029 57.2661 102.1 57.6235 102.1 58.124C102.029 58.6959 101.885 59.1964 101.456 59.5538Z" fill="#007BC0"/>
<path d="M110.621 54.6208L105.68 67.2751H107.47L108.902 63.486H114.2L115.561 67.2751H117.494L112.554 54.6208H110.621ZM113.628 61.9846H109.475L111.551 56.1937L113.628 61.9846Z" fill="#007BC0"/>
<path d="M129.666 66.4887C129.594 66.2027 129.523 65.9167 129.451 65.6308C129.379 65.3448 129.379 64.9873 129.379 64.7014C129.379 64.4154 129.379 64.0579 129.308 63.7719C129.236 63.486 129.236 63.2 129.165 62.914C129.093 62.628 129.021 62.3421 128.878 62.1276C128.735 61.9131 128.52 61.6986 128.305 61.5556C128.091 61.4127 127.804 61.2697 127.518 61.1982C128.234 60.9837 128.807 60.5547 129.093 60.0543C129.451 59.4823 129.594 58.7674 129.594 58.0525C129.594 57.0516 129.236 56.1937 128.592 55.6217C127.876 55.0498 126.945 54.7638 125.728 54.7638H119.785V67.4181H121.575V62.0561H125.656C126.086 62.0561 126.372 62.1276 126.659 62.2706C126.945 62.4136 127.088 62.5566 127.231 62.771C127.375 62.9855 127.518 63.2 127.589 63.486C127.661 63.7719 127.733 64.0579 127.733 64.3439C127.804 64.6299 127.804 64.9873 127.804 65.2733C127.804 65.4878 127.804 65.7023 127.804 65.9167V66.2027C127.804 66.4887 127.876 66.7032 127.876 66.9891C127.947 67.2036 128.019 67.4181 128.091 67.5611H130.095L130.024 67.4896C129.881 66.9891 129.737 66.7747 129.666 66.4887ZM121.575 56.1222H125.728C126.515 56.1222 127.088 56.3366 127.446 56.6941C127.804 57.0516 127.947 57.6235 127.947 58.1955C127.947 58.6244 127.876 58.9819 127.733 59.2679C127.589 59.5538 127.375 59.7683 127.088 59.9113C126.802 60.0543 126.515 60.1973 126.157 60.2688C125.799 60.3403 125.441 60.3403 125.083 60.3403H121.647L121.575 56.1222Z" fill="#007BC0"/>
<path d="M142.339 62.4851C142.339 62.9855 142.196 63.486 142.052 63.9149C141.909 64.3439 141.623 64.7729 141.336 65.0588C141.05 65.3448 140.692 65.6308 140.263 65.7738C139.833 65.9167 139.332 66.0597 138.831 66.0597C138.115 66.0597 137.47 65.9167 136.897 65.6308C136.396 65.3448 135.895 64.9873 135.609 64.4869C135.251 63.9864 135.036 63.486 134.821 62.8425C134.678 62.1991 134.606 61.5557 134.606 60.8407C134.606 60.1973 134.678 59.5538 134.821 58.9104C134.964 58.3385 135.251 57.7665 135.609 57.2661C135.967 56.7656 136.396 56.4081 136.897 56.1222C137.399 55.8362 138.043 55.6932 138.831 55.6932C139.69 55.6932 140.477 55.9077 141.122 56.3367C141.766 56.7656 142.196 57.4805 142.339 58.3385H144.129V58.267C144.057 57.6235 143.842 56.9801 143.556 56.4796C143.27 55.9792 142.84 55.5502 142.41 55.1928C141.981 54.8353 141.408 54.6208 140.835 54.4063C140.263 54.2633 139.618 54.1204 138.974 54.1204C137.971 54.1204 137.112 54.2634 136.396 54.6208C135.68 54.9783 135.036 55.4787 134.535 56.0507C134.033 56.6226 133.675 57.3376 133.389 58.1955C133.103 58.9819 133.031 59.9113 133.031 60.7692C133.031 61.6986 133.174 62.5566 133.389 63.343C133.604 64.1294 134.033 64.8443 134.463 65.4163C134.964 65.9882 135.537 66.4887 136.325 66.8462C137.041 67.2036 137.9 67.3466 138.902 67.3466C140.549 67.3466 141.838 66.9177 142.768 65.9882C143.699 65.1303 144.272 63.8434 144.415 62.2706V62.1991L142.339 62.4851Z" fill="#007BC0"/>
<path d="M148.854 61.4842H155.441V60.0543H148.854V56.1222H155.943V54.6208H147.136V67.2751H155.943V65.7738H148.854V61.4842Z" fill="#007BC0"/>
<path d="M161.169 54.6208H159.38V67.2751H167.828V65.7738H161.169V54.6208Z" fill="#007BC0"/>
<path d="M179.069 56.3366C178.568 55.6932 177.924 55.1927 177.136 54.8352C176.348 54.4778 175.489 54.2633 174.487 54.2633C173.485 54.2633 172.625 54.4778 171.838 54.8352C171.05 55.1927 170.477 55.6932 169.905 56.3366C169.403 56.98 169.045 57.695 168.759 58.4814C168.473 59.2678 168.401 60.1258 168.401 60.9837C168.401 61.8416 168.544 62.6995 168.759 63.4859C169.045 64.2724 169.403 64.9873 169.905 65.6307C170.406 66.2742 171.05 66.7031 171.838 67.1321C172.625 67.4896 173.485 67.704 174.487 67.704C175.489 67.704 176.348 67.4896 177.136 67.1321C177.924 66.7746 178.496 66.2742 179.069 65.6307C179.57 64.9873 179.928 64.2724 180.215 63.4859C180.501 62.6995 180.573 61.8416 180.573 60.9837C180.573 60.1258 180.43 59.2678 180.215 58.4814C180 57.6235 179.57 56.9086 179.069 56.3366ZM174.559 66.0597C173.771 66.0597 173.127 65.9167 172.625 65.6307C172.053 65.3448 171.623 64.9158 171.265 64.4153C170.907 63.9149 170.692 63.3429 170.477 62.771C170.334 62.1276 170.263 61.5556 170.263 60.9122C170.263 60.2687 170.334 59.6253 170.477 59.0533C170.621 58.4099 170.907 57.9095 171.265 57.409C171.623 56.9086 172.053 56.5511 172.625 56.1936C173.198 55.9076 173.843 55.7647 174.559 55.7647C175.346 55.7647 175.991 55.9076 176.492 56.1936C177.064 56.4796 177.494 56.9086 177.852 57.409C178.21 57.9095 178.496 58.4814 178.64 59.0533C178.783 59.6253 178.854 60.2687 178.854 60.9122C178.854 61.5556 178.783 62.1991 178.64 62.771C178.496 63.4144 178.21 63.9149 177.852 64.4153C177.494 64.9158 177.064 65.2733 176.492 65.6307C175.919 65.9167 175.275 66.0597 174.559 66.0597Z" fill="#007BC0"/>
<path d="M192.315 64.7729L185.656 54.6208H183.795V67.2751H185.513V57.1946L192.029 67.2751H193.962V54.6208H192.315V64.7729Z" fill="#007BC0"/>
<path d="M201.408 54.6208L196.468 67.2751H198.258L199.69 63.486H204.988L206.348 67.2751H208.282L203.341 54.6208H201.408ZM204.415 61.9846H200.263L202.339 56.1937L204.415 61.9846Z" fill="#007BC0"/>
<path d="M208.854 57.0516H212.649V67.2751H215.513V57.0516H219.308V54.6208H208.854V57.0516Z" fill="#007BC0"/>
<path d="M224.463 61.8417H230.62V59.6254H224.463V57.0516H231.122V54.6208H221.599V67.2751H231.265V64.8444H224.463V61.8417Z" fill="#007BC0"/>
<path d="M242.506 62.4135C242.291 64.2009 241.217 65.2018 239.714 65.2018C237.208 65.2018 236.348 63.057 236.348 61.0552C236.348 60.0543 236.563 56.7656 239.714 56.7656C241.074 56.7656 242.22 57.695 242.434 58.9104H245.227V58.8389C244.94 56.0506 242.721 54.2633 239.714 54.2633C235.99 54.2633 233.484 56.98 233.484 60.9837C233.484 64.8443 236.062 67.561 239.714 67.561C242.792 67.561 245.012 65.5592 245.298 62.342V62.2705L242.506 62.4135Z" fill="#007BC0"/>
<path d="M255.179 59.4109H250.167V54.6208H247.303V67.2751H250.167V61.8417H255.179V67.2751H258.043V54.6208H255.179V59.4109Z" fill="#007BC0"/>
<path d="M40.4535 57.1231H38.9499V60.1973H40.4535C41.4558 60.1973 41.8138 59.4109 41.8138 58.6244C41.8138 57.7665 41.5274 57.1231 40.4535 57.1231ZM39.5227 0C17.685 0 0 17.6588 0 39.4643C0 61.2697 17.685 78.9285 39.5227 78.9285C61.3604 78.9285 79.0453 61.2697 79.0453 39.4643C79.117 17.6588 61.3604 0 39.5227 0ZM39.7375 11.1529C42.8878 11.1529 45.3938 13.6552 45.3938 16.8009C45.3938 19.9466 42.8878 22.4489 39.7375 22.4489C36.5871 22.4489 34.0811 19.9466 34.0811 16.8009C34.0811 13.6552 36.5871 11.1529 39.7375 11.1529ZM39.7375 24.5222C42.8878 24.5222 45.3938 27.0244 45.3938 30.1701C45.3938 33.3158 42.8878 35.8181 39.7375 35.8181C36.5871 35.8181 34.0811 33.3158 34.0811 30.1701C34.0811 27.0244 36.5871 24.5222 39.7375 24.5222ZM25.9905 11.1529C29.1408 11.1529 31.6468 13.6552 31.6468 16.8009C31.6468 19.9466 29.1408 22.4489 25.9905 22.4489C22.8401 22.4489 20.3341 19.9466 20.3341 16.8009C20.3341 13.6552 22.8401 11.1529 25.9905 11.1529ZM25.9905 24.5222C29.1408 24.5222 31.6468 27.0244 31.6468 30.1701C31.6468 33.3158 29.1408 35.8181 25.9905 35.8181C22.8401 35.8181 20.3341 33.3158 20.3341 30.1701C20.3341 27.0244 22.8401 24.5222 25.9905 24.5222ZM25.9905 38.2489C29.1408 38.2489 31.6468 40.7511 31.6468 43.8968C31.6468 47.0425 29.1408 49.5448 25.9905 49.5448C22.8401 49.5448 20.3341 47.0425 20.3341 43.8968C20.3341 40.7511 22.8401 38.2489 25.9905 38.2489ZM32.6492 62.1991C32.6492 63.5575 32.5776 65.2733 30.7876 66.5602C29.5704 67.4181 28.21 67.5611 26.9212 67.5611C25.6325 67.5611 24.2721 67.4181 23.0549 66.5602C21.2649 65.2733 21.1933 63.5575 21.1933 62.1991V54.2633H24.9881V62.1991C24.9881 62.9855 25.0597 63.5575 25.6325 63.9864C26.0621 64.3439 26.3484 64.4154 26.9212 64.4154C27.4224 64.4154 27.7804 64.2724 28.21 63.9864C28.7828 63.486 28.8544 62.914 28.8544 62.1991V54.2633H32.6492V62.1991ZM39.7375 38.2489C42.8878 38.2489 45.3938 40.7511 45.3938 43.8968C45.3938 47.0425 42.8878 49.5448 39.7375 49.5448C36.5871 49.5448 34.0811 47.0425 34.0811 43.8968C34.0811 40.7511 36.5871 38.2489 39.7375 38.2489ZM43.747 62.3421C43.031 62.8425 42.1718 63.057 40.0955 63.057H39.0215V67.3466H35.7279V54.2633H41.1695C43.8186 54.2633 45.4654 55.8362 45.4654 58.7674C45.4654 60.2688 44.821 61.5556 43.747 62.3421ZM57.3508 58.1955C56.0621 57.1231 55.5609 57.1946 54.5585 57.1946C52.5537 57.1946 51.1933 58.6959 51.1933 60.8407C51.1933 62.9855 52.5537 64.4869 54.5585 64.4869C55.6325 64.4869 56.1337 64.3439 57.3508 63.486V66.8462C56.1337 67.4896 55.4177 67.6326 54.2005 67.6326C50.2625 67.6326 47.4702 64.8443 47.4702 60.8407C47.4702 56.9086 50.3341 53.9774 54.1289 53.9774C55.2745 53.9774 56.0621 54.1919 57.3508 54.7638V58.1955ZM53.1265 49.4733C49.9761 49.4733 47.4702 46.971 47.4702 43.8253C47.4702 40.6796 49.9761 38.1774 53.1265 38.1774C56.2052 38.1774 58.7828 40.6796 58.7828 43.8253C58.7828 46.971 56.2052 49.4733 53.1265 49.4733ZM53.1265 35.7466C49.9761 35.7466 47.4702 33.2443 47.4702 30.0986C47.4702 26.9529 49.9761 24.4507 53.1265 24.4507C56.2052 24.4507 58.7828 26.9529 58.7828 30.0986C58.7828 33.2443 56.2052 35.7466 53.1265 35.7466ZM53.1265 22.4489C49.9761 22.4489 47.4702 19.9466 47.4702 16.8009C47.4702 13.6552 49.9761 11.1529 53.1265 11.1529C56.2052 11.1529 58.7828 13.6552 58.7828 16.8009C58.7828 19.9466 56.2052 22.4489 53.1265 22.4489Z" fill="#007BC0"/>
</g>
<defs>
<clipPath id="clip0_19_1110">
<rect width="360" height="79" fill="white"/>
</clipPath>
</defs>
</svg>
