<?xml version="1.0" encoding="UTF-8" standalone="no"?>
<!-- Generator: Adobe Illustrator 15.0.2, SVG Export Plug-In  -->

<svg
   version="1.1"
   x="0px"
   y="0px"
   width="185.27859"
   height="132.06465"
   viewBox="-16.338 -23.921 185.2786 132.06466"
   enable-background="new -16.338 -23.921 638 170"
   xml:space="preserve"
   id="svg31"
   sodipodi:docname="upcfib50-bb.svg"
   inkscape:version="1.4.3 (fcd0343856, 2026-01-01)"
   xmlns:inkscape="http://www.inkscape.org/namespaces/inkscape"
   xmlns:sodipodi="http://sodipodi.sourceforge.net/DTD/sodipodi-0.dtd"
   xmlns="http://www.w3.org/2000/svg"
   xmlns:svg="http://www.w3.org/2000/svg"><sodipodi:namedview
   id="namedview1"
   pagecolor="#ffffff"
   bordercolor="#000000"
   borderopacity="0.25"
   inkscape:showpageshadow="2"
   inkscape:pageopacity="0.0"
   inkscape:pagecheckerboard="0"
   inkscape:deskcolor="#d1d1d1"
   inkscape:zoom="1.345492"
   inkscape:cx="-240.8041"
   inkscape:cy="102.1931"
   inkscape:window-width="2560"
   inkscape:window-height="1371"
   inkscape:window-x="0"
   inkscape:window-y="0"
   inkscape:window-maximized="1"
   inkscape:current-layer="svg31" />
<defs
   id="defs1" />




















































<style
   type="text/css"
   id="style1">
	.st0{fill:#696868;}
	.st1{fill:#E42313;}
</style><g
   id="g31"
   transform="matrix(0.41384543,0,0,0.41384543,-16.338,-23.921)"><polygon
     class="st0"
     points="97.6,24.6 49.2,24.6 49.2,49.4 97.6,49.4 97.6,73 49.2,73 49.2,122.2 0,122.2 0,0.2 97.6,0.2 "
     id="polygon1" /><rect
     x="108.4"
     y="0"
     class="st1"
     width="48.5"
     height="122.1"
     id="rect1" /><path
     class="st0"
     d="M 272.6,61.1 C 289.1,56.5 298.8,39.3 294.1,22.8 290.3,9.4 278.2,0.2 264.3,0.1 h -93.6 v 122 h 93.6 c 17.2,0 31.1,-13.9 31,-31.1 0,-13.9 -9.3,-26.1 -22.7,-29.9 z M 244.2,98.2 H 218.5 V 73.1 h 25.7 z m 0,-48.9 h -25.7 v -25 h 25.7 z"
     id="path1-4" /><rect
     x="108.5"
     y="133.39999"
     class="st1"
     width="115.3"
     height="34.799999"
     id="rect2-7" /><path
     class="st1"
     d="m 352.4,279.8 c -31.3,0 -56.7,-25.4 -56.7,-56.7 h -38.6 c 0,9.3 1.4,18.6 4.1,27.6 h -22.7 v 29.7 h 37.8 c 31.6,42.1 91.3,50.5 133.4,18.9 24,-18 38,-46.2 38,-76.2 h -38.6 c 0,31.3 -25.4,56.7 -56.7,56.7 z"
     id="path2-83" /><path
     class="st1"
     d="M 41.2,312.9 H 26.5 l -2.3,5.8 h -8.9 l 14.8,-35 h 7.7 l 14.7,35 h -8.8 z m -2.7,-6.9 -4.7,-12 -4.7,12 z"
     id="path3" /><path
     class="st1"
     d="m 54.5,283.7 h 5.2 l 20.8,20.9 -0.2,-20.9 h 8.3 v 35 h -5.1 l -20.8,-21 0.2,21 h -8.3 v -35 z"
     id="path4-5" /><path
     class="st1"
     d="M 124.3,283.7 112,306.4 v 12.2 h -8.3 V 306.4 L 91.4,283.7 h 8.9 l 7.6,15.4 7.6,-15.4 z"
     id="path5" /><path
     class="st1"
     d="m 124.8,314.6 3.1,-5.6 c 2.7,2.1 6,3.3 9.4,3.3 3.8,0 5.8,-1 5.8,-3.1 0,-2.3 -2.6,-3.2 -6.4,-4.3 l -1.8,-0.5 c -6.2,-1.7 -10.6,-4.2 -10.6,-10.1 0,-6.7 5.4,-11.2 13.5,-11.2 4.4,-0.1 8.7,1.4 12.2,4 l -3.6,5.8 c -2.4,-1.9 -5.4,-3 -8.5,-2.9 -3.1,0 -5.1,1.1 -5.1,2.9 0,2.2 2.5,3 5.8,3.9 l 1.8,0.5 c 5.6,1.5 11.2,4.6 11.2,11 0,6.5 -5.6,10.8 -13.9,10.8 -4.7,0.2 -9.3,-1.5 -12.9,-4.5 z"
     id="path6-1" /><path
     class="st1"
     d="m 299.7,193.7 c 11.4,-29.1 44.2,-43.5 73.4,-32.2 14.7,5.8 26.4,17.4 32.2,32.2 h 40.3 c -11.4,-51.4 -62.3,-83.8 -113.7,-72.4 -36.2,8 -64.4,36.3 -72.4,72.4 z"
     id="path7-2" /><path
     class="st1"
     d="M 171.7,201.8 H 140 V 176 H 81.6 v 31 h 26.7 v 33.9 h 63.4 c 10.1,0 18.2,8.2 18.2,18.2 v 2 c 0,10.1 -8.2,18.2 -18.2,18.2 h -5 v 39 h 5 c 31.6,0 57.3,-25.6 57.3,-57.3 v -2 c 0,-31.5 -25.7,-57.1 -57.3,-57.2 z"
     id="path8-0" /></g></svg>
