<?xml version="1.0" encoding="UTF-8" standalone="no"?>
<!-- Created with Inkscape (http://www.inkscape.org/) -->

<svg
   width="38.375042mm"
   height="38.375mm"
   viewBox="0 0 38.375042 38.375"
   version="1.1"
   id="svg1"
   xml:space="preserve"
   inkscape:version="1.4.3 (fcd0343856, 2026-01-01)"
   sodipodi:docname="fme.svg"
   xmlns:inkscape="http://www.inkscape.org/namespaces/inkscape"
   xmlns:sodipodi="http://sodipodi.sourceforge.net/DTD/sodipodi-0.dtd"
   xmlns="http://www.w3.org/2000/svg"
   xmlns:svg="http://www.w3.org/2000/svg"><sodipodi:namedview
     id="namedview1"
     pagecolor="#ffffff"
     bordercolor="#000000"
     borderopacity="0.25"
     inkscape:showpageshadow="2"
     inkscape:pageopacity="0.0"
     inkscape:pagecheckerboard="0"
     inkscape:deskcolor="#d1d1d1"
     inkscape:document-units="mm"
     inkscape:zoom="4.144248"
     inkscape:cx="129.33589"
     inkscape:cy="73.234034"
     inkscape:window-width="2560"
     inkscape:window-height="1371"
     inkscape:window-x="0"
     inkscape:window-y="0"
     inkscape:window-maximized="1"
     inkscape:current-layer="layer1" /><defs
     id="defs1" /><g
     inkscape:label="Layer 1"
     inkscape:groupmode="layer"
     id="layer1"
     transform="translate(-5.9252089,-4.5839699)"><rect
       style="fill:#ffffff;stroke-width:0.264583;fill-opacity:1"
       id="rect1"
       width="38.375046"
       height="38.375004"
       x="5.925209"
       y="4.5839701" /><path
       style="fill:#2d7cad;fill-opacity:1"
       d="m 11.194082,42.849596 c 0.0184,-0.06016 0.218857,-0.611157 0.445463,-1.224447 1.455163,-3.938262 2.772891,-9.234944 5.29301,-21.275554 l 0.264898,-1.265625 h 2.613878 2.613878 l -4.38e-4,0.234375 c -2.41e-4,0.128906 -0.05448,0.459375 -0.120521,0.734375 -0.117499,0.489243 -2.008079,5.76261 -2.510017,7.001155 -0.465036,1.147485 -1.022971,1.799796 -1.760337,2.058101 -0.435083,0.152412 -0.608687,0.315824 -0.608687,0.572951 0,0.112291 0.03073,0.22316 0.06829,0.246373 0.03756,0.02321 1.067168,0.0427 2.288017,0.0433 2.356998,0.0012 2.327869,0.0048 2.330234,-0.291961 0.0015,-0.192107 -0.16831,-0.328514 -0.597837,-0.48015 -0.735261,-0.259569 -0.97356,-0.666325 -0.845315,-1.442877 0.11193,-0.677765 0.471331,-1.781873 1.176121,-3.613144 1.001344,-2.601812 1.230938,-3.157392 1.299238,-3.143945 0.03438,0.0068 0.448457,1.947392 0.920182,4.3125 0.471725,2.365107 0.886154,4.36389 0.920954,4.44174 0.0348,0.07785 0.134528,0.174012 0.221618,0.213693 0.140072,0.06382 0.180335,0.05109 0.348876,-0.110296 0.104792,-0.100343 1.626214,-2.228536 3.380938,-4.729317 1.754724,-2.500782 3.217226,-4.546876 3.250006,-4.546876 0.03278,0 0.04529,0.04922 0.02781,0.109376 -0.01749,0.06016 -0.330273,1.614062 -0.695084,3.453125 -0.364811,1.839062 -0.719669,3.517581 -0.788574,3.730041 -0.222804,0.686994 -0.617764,1.077598 -1.28813,1.273925 -0.145148,0.04251 -0.320929,0.130415 -0.390625,0.195346 -0.170469,0.158816 -0.167554,0.461935 0.0053,0.554461 0.09185,0.04916 0.941341,0.07212 2.790735,0.07543 l 2.658684,0.0048 0.115516,-0.142656 c 0.244754,-0.302259 0.108339,-0.477731 -0.509485,-0.655351 -0.709701,-0.204034 -0.9375,-0.474571 -0.9375,-1.113387 0,-0.47787 1.646173,-8.668064 1.845849,-9.18364 0.290649,-0.750475 0.772493,-1.141872 1.603474,-1.302488 0.47137,-0.09111 0.68873,-0.262051 0.66347,-0.521795 l -0.0191,-0.195897 -1.699856,-0.0093 c -1.199377,-0.0065 -1.725843,0.01186 -1.788111,0.0625 -0.04854,0.03948 -1.362553,1.843654 -2.920031,4.00928 -1.557479,2.165625 -3.10083,4.311464 -3.42967,4.768531 -0.32884,0.457068 -0.604689,0.80863 -0.612997,0.78125 -0.0083,-0.02738 -0.46566,-2.131031 -1.016338,-4.674781 -0.690341,-3.188897 -1.037365,-4.673518 -1.117598,-4.781251 l -0.116365,-0.15625 -3.477641,-0.01615 c -2.311921,-0.01074 -3.47764,-0.03752 -3.47764,-0.07991 0,-0.08245 0.737394,-3.029666 1.101869,-4.403943 0.641454,-2.4186456 1.403458,-4.3167639 2.233081,-5.5624999 0.367685,-0.5521048 1.072614,-1.2298841 1.489643,-1.4322705 0.679481,-0.3297558 1.442115,-0.2795545 1.68001,0.1105887 0.165105,0.2707686 0.151738,0.404226 -0.07638,0.76257 -0.33888,0.5323378 -0.606575,1.1516278 -0.650796,1.5055598 -0.0946,0.757169 0.238678,1.6579633 0.815134,2.2031503 0.509484,0.4818486 0.929528,0.6563376 1.646663,0.6840336 0.641184,0.02476 1.008072,-0.04454 1.474267,-0.278468 0.943436,-0.4734036 1.411508,-1.3092289 1.411508,-2.5204999 0,-1.113337 -0.359441,-2.0648178 -1.075052,-2.8457803 L 27.289135,4.5839699 h 8.505537 8.505539 l -2.3e-4,9.9531251 -2.3e-4,9.953126 -0.7227,0.01326 c -3.55841,0.0653 -7.11547,2.531776 -8.814144,6.111737 -0.568883,1.198924 -0.790328,2.102931 -0.796119,3.25 -0.0047,0.931943 0.08674,1.375433 0.42525,2.0625 0.840538,1.706003 3.000503,2.711282 5.320213,2.476105 1.64468,-0.166741 2.92795,-0.77255 4.13483,-1.951981 l 0.45313,-0.442818 v 3.474972 3.474972 H 27.73042 c -15.751829,0 -16.568139,-0.0054 -16.536338,-0.109375 z m -5.2639391,-12.75 -0.0049,-11.015626 h 2.46875 c 1.479826,0 2.4687501,0.02328 2.4687501,0.05811 0,0.03196 -0.142559,0.657742 -0.316799,1.390625 -0.500624,2.105723 -1.6811931,7.367118 -3.1809171,14.176267 -0.760899,3.454687 -1.393907,6.309375 -1.406685,6.34375 -0.01278,0.03438 -0.02545,-4.894532 -0.02816,-10.953125 z m 34.0888181,6.362329 c -0.76157,-0.163802 -1.25194,-0.596965 -1.46811,-1.29683 -0.14694,-0.475744 -0.16733,-1.448171 -0.0429,-2.046471 l 0.0773,-0.371596 0.79598,-0.140229 c 1.77997,-0.313581 3.51346,-0.867295 4.59089,-1.466434 l 0.32813,-0.182463 v 1.571702 1.571702 l -0.35325,0.431773 c -0.75463,0.922381 -1.55251,1.538293 -2.33425,1.801876 -0.44711,0.150754 -1.20314,0.210985 -1.59375,0.12697 z m -1.11726,-4.924829 c 0.13048,-0.542037 0.65619,-1.918196 1.03157,-2.700309 0.55307,-1.152357 1.10768,-1.98439 1.69392,-2.541262 0.55624,-0.528379 0.94124,-0.729531 1.46012,-0.762888 0.90087,-0.05791 1.20637,0.531152 0.93627,1.805282 -0.32424,1.529528 -1.40733,2.807296 -3.09606,3.652565 -0.41247,0.206454 -1.84158,0.718487 -2.00534,0.718487 -0.0358,0 -0.0444,-0.07229 -0.0205,-0.171875 z M 5.9252089,10.709627 V 4.5839699 h 6.5455681 6.545568 L 18.542704,4.861229 c -3.031359,1.7744871 -5.436747,5.611646 -6.917628,11.035241 l -0.247446,0.90625 -2.7262111,0.01628 -2.72621,0.01628 z"
       id="path1" /></g></svg>
