<?xml version="1.0" encoding="UTF-8" standalone="no"?>
<!-- Created with Inkscape (http://www.inkscape.org/) -->

<svg
   width="48.863605mm"
   height="27.002645mm"
   viewBox="0 0 48.863605 27.002645"
   version="1.1"
   id="svg1"
   xml:space="preserve"
   sodipodi:docname="telecos.svg"
   inkscape:version="1.4.3 (fcd0343856, 2026-01-01)"
   xmlns:inkscape="http://www.inkscape.org/namespaces/inkscape"
   xmlns:sodipodi="http://sodipodi.sourceforge.net/DTD/sodipodi-0.dtd"
   xmlns="http://www.w3.org/2000/svg"
   xmlns:svg="http://www.w3.org/2000/svg"><sodipodi:namedview
     id="namedview1"
     pagecolor="#ffffff"
     bordercolor="#000000"
     borderopacity="0.25"
     inkscape:showpageshadow="2"
     inkscape:pageopacity="0.0"
     inkscape:pagecheckerboard="0"
     inkscape:deskcolor="#d1d1d1"
     inkscape:document-units="mm"
     inkscape:zoom="1.4652129"
     inkscape:cx="303.02763"
     inkscape:cy="192.12224"
     inkscape:window-width="2560"
     inkscape:window-height="1371"
     inkscape:window-x="0"
     inkscape:window-y="0"
     inkscape:window-maximized="1"
     inkscape:current-layer="layer1" /><defs
     id="defs1" /><g
     inkscape:label="Layer 1"
     inkscape:groupmode="layer"
     id="layer1"
     transform="translate(-1.2278434,-0.9145118)"><path
       style="fill:#dc4405;fill-opacity:1"
       d="m 18.724827,27.892029 c -0.135278,-0.03848 -0.253822,-0.101286 -0.413355,-0.219005 -0.08946,-0.06602 -1.078016,-1.151962 -3.044724,-3.344696 -1.601736,-1.785818 -2.965963,-3.307611 -3.031615,-3.381762 -0.06565,-0.07415 -0.160853,-0.218286 -0.211556,-0.320298 -0.07827,-0.157481 -0.09363,-0.211746 -0.101764,-0.359523 -0.0075,-0.137047 0.06501,-0.732421 0.341289,-2.800671 0.192976,-1.444643 0.348105,-2.628732 0.344732,-2.63131 -0.0034,-0.0026 -0.956621,0.246525 -2.118329,0.55356 -1.6483119,0.435643 -2.1418069,0.55817 -2.2470189,0.557902 -0.159981,-4.07e-4 -0.337005,-0.06653 -0.50161,-0.187359 -0.113968,-0.08366 -6.129102,-6.6470159 -6.269063,-6.8404289 -0.104905,-0.144968 -0.199913,-0.348669 -0.229825,-0.492758 -0.01789,-0.08616 -0.01872,-0.262663 -0.003,-0.622362 0.01835,-0.418548 0.02939,-0.518764 0.06632,-0.602261 0.05351,-0.120967 0.153533,-0.188655 0.308672,-0.208887 l 0.112103,-0.01462 3.321186,3.7629509 3.321186,3.76295 0.206633,-0.05195 c 0.113648,-0.02857 1.295803,-0.316177 2.6270119,-0.639123 2.374975,-0.57616 2.42178,-0.58651 2.495062,-0.551735 0.11647,0.05527 0.236091,0.163704 0.29899,0.271033 l 0.05748,0.09808 -0.430831,3.271682 -0.430831,3.271683 0.121347,0.128313 c 0.06674,0.07057 1.607386,1.710394 3.423657,3.644048 3.208235,3.41558 3.302125,3.517999 3.295828,3.595229 -0.01073,0.131652 -0.09537,0.271813 -0.196023,0.324606 -0.08152,0.04276 -0.131182,0.04738 -0.550246,0.05124 -0.318389,0.0029 -0.491865,-0.0046 -0.561755,-0.02453 z M 22.7677,21.805516 c -0.163428,-0.110135 -0.217546,-0.271577 -0.138679,-0.413697 0.03181,-0.05733 0.215741,-0.268968 0.455022,-0.52358 0.01854,-0.01973 0.07355,-0.08601 0.122253,-0.147295 0.0487,-0.06129 0.102107,-0.126598 0.118677,-0.145136 0.07863,-0.08797 0.147794,-0.173568 0.181548,-0.224702 0.0204,-0.0309 0.04996,-0.06426 0.06571,-0.07415 0.01575,-0.0099 0.02863,-0.02865 0.02863,-0.04171 0,-0.01306 0.03232,-0.06454 0.07182,-0.114413 0.139485,-0.176114 0.580239,-0.838442 0.63928,-0.960655 0.009,-0.01854 0.05857,-0.105583 0.110254,-0.193433 0.160267,-0.272416 0.52635,-1.028785 0.66223,-1.368245 0.431436,-1.077824 0.687483,-2.147242 0.812375,-3.392997 0.04316,-0.430511 0.03686,-1.700741 -0.01071,-2.159389 -0.06628,-0.639012 -0.266242,-1.704838 -0.387426,-2.0650059 -0.01663,-0.04943 -0.05546,-0.175829 -0.08629,-0.280877 -0.103225,-0.351795 -0.327091,-0.955918 -0.462127,-1.247095 -0.03439,-0.07415 -0.08519,-0.185379 -0.112891,-0.247172 -0.08502,-0.189656 -0.333148,-0.666981 -0.447295,-0.860473 -0.0386,-0.06543 -0.07018,-0.123978 -0.07018,-0.130114 0,-0.0061 -0.0192,-0.03855 -0.04266,-0.07204 -0.02346,-0.03349 -0.09054,-0.13672 -0.14906,-0.22941 -0.190896,-0.302365 -0.347306,-0.531926 -0.455509,-0.668542 -0.0395,-0.04987 -0.07182,-0.101358 -0.07182,-0.114414 0,-0.01305 -0.01288,-0.03182 -0.02863,-0.04171 -0.01574,-0.0099 -0.04571,-0.04486 -0.06659,-0.07772 -0.03361,-0.0529 -0.06453,-0.09072 -0.180755,-0.221128 -0.01652,-0.01854 -0.06989,-0.08385 -0.118589,-0.145136 -0.0487,-0.06129 -0.103715,-0.12757 -0.122253,-0.147295 -0.01854,-0.01973 -0.119654,-0.130213 -0.224702,-0.245527 -0.242016,-0.265668 -0.454705,-0.478357 -0.720372,-0.720372 -0.115314,-0.105048 -0.225801,-0.206164 -0.245527,-0.224702 -0.01973,-0.01854 -0.08601,-0.07355 -0.147295,-0.122254 -0.06129,-0.0487 -0.126599,-0.102106 -0.145137,-0.118677 -0.08797,-0.07863 -0.173567,-0.147793 -0.224701,-0.181547 -0.0309,-0.0204 -0.06426,-0.04996 -0.07415,-0.06571 -0.0099,-0.01575 -0.02865,-0.02863 -0.04171,-0.02863 -0.01306,0 -0.06454,-0.03232 -0.114413,-0.07182 -0.135366,-0.107212 -0.381693,-0.274388 -0.713483,-0.484223 -0.06797,-0.04299 -0.150983,-0.09725 -0.184469,-0.120583 -0.03349,-0.02333 -0.06606,-0.04242 -0.07238,-0.04242 -0.0063,0 -0.08647,-0.04432 -0.178095,-0.09849 -0.161037,-0.09521 -0.862893,-0.446877 -1.115498,-0.558927 -0.14105,-0.06257 -0.571744,-0.227138 -0.853867,-0.326269 -0.828712,-0.291189 -1.825655,-0.502672 -2.797538,-0.593445 -0.41264,-0.03854 -1.634665,-0.03838 -2.044786,2.61e-4 -0.998744,0.09411 -1.949714,0.295784 -2.797538,0.593277 -0.280418,0.0984 -0.7121999,0.263336 -0.8538669,0.326176 -0.252604,0.11205 -0.954461,0.463719 -1.115497,0.558927 -0.09163,0.05417 -0.171772,0.09849 -0.178096,0.09849 -0.0063,0 -0.03889,0.0192 -0.07238,0.04266 -0.03348,0.02346 -0.13672,0.09054 -0.229409,0.149059 -0.302366,0.190897 -0.531926,0.347307 -0.668543,0.455509 -0.04987,0.0395 -0.101357,0.07182 -0.114413,0.07182 -0.01306,0 -0.03182,0.01288 -0.04171,0.02863 -0.0099,0.01575 -0.04325,0.04531 -0.07414,0.06571 -0.05737,0.03787 -0.163262,0.124645 -0.225937,0.185148 -0.06222,0.06006 -0.201366,0.105999 -0.273261,0.09021 -0.03718,-0.0082 -0.106354,-0.04985 -0.15371,-0.09264 -0.19078,-0.172358 -0.161715,-0.330291 0.09847,-0.535086 0.08866,-0.06979 0.176372,-0.138997 0.19491,-0.153802 0.150857,-0.120481 0.510247,-0.364642 0.966218,-0.656425 0.367664,-0.235275 1.276988,-0.694631 1.786379,-0.902412 1.4828829,-0.604868 3.0366709,-0.90504502 4.6864869,-0.90538602 2.411725,-4.98e-4 4.685378,0.66747902 6.728366,1.97672702 0.319622,0.20483 0.450068,0.297408 0.842632,0.598023 0.834089,0.638722 1.677771,1.497792 2.337171,2.379798 0.42277,0.565492 0.76625,1.119725 1.100128,1.775144 0.169832,0.333389 0.227695,0.455886 0.371496,0.786457 0.375016,0.862088 0.697024,2.0074469 0.8402,2.9885339 0.103439,0.708789 0.123452,1.003307 0.124441,1.83132 9.98e-4,0.835287 -0.01329,1.059198 -0.11396,1.78638 -0.328119,2.370044 -1.367042,4.620844 -2.971515,6.437707 -0.103682,0.117407 -0.209188,0.23369 -0.234458,0.258407 -0.137863,0.134848 -0.251667,0.156749 -0.376694,0.07249 z m 20.910268,-0.344259 c -0.63303,-0.08965 -1.00097,-0.231917 -1.34193,-0.518867 -0.32475,-0.273318 -0.525405,-0.636801 -0.639031,-1.157621 -0.06295,-0.288556 -0.05826,-1.059069 0.0081,-1.321159 0.154195,-0.609454 0.510008,-1.085543 0.983418,-1.315842 0.42173,-0.205159 0.96465,-0.285099 1.61397,-0.237643 0.21267,0.01554 0.47149,0.04096 0.57515,0.05647 0.17197,0.02574 0.19503,0.03536 0.26332,0.109879 0.0412,0.04492 0.0815,0.108007 0.0895,0.140197 0.008,0.03219 -0.009,0.196035 -0.0374,0.364101 -0.0558,0.32746 -0.0899,0.398277 -0.22563,0.468458 -0.0584,0.0302 -0.0817,0.02904 -0.24255,-0.01202 -0.65638,-0.16759 -1.22915,-0.05546 -1.45567,0.284963 -0.30806,0.462958 -0.24181,1.392045 0.12542,1.758881 0.24305,0.242798 0.67809,0.335862 1.26961,0.271592 0.24129,-0.02622 0.24584,-0.02584 0.31882,0.02608 0.13543,0.09637 0.15794,0.145514 0.21051,0.459712 l 0.0496,0.296332 -0.0538,0.07917 c -0.0953,0.140302 -0.14627,0.164993 -0.42334,0.205252 -0.24377,0.03542 -0.94386,0.06249 -1.08806,0.04206 z m -5.982894,-0.120381 c -0.04028,-0.02509 -0.09333,-0.07857 -0.117884,-0.118845 -0.04366,-0.0716 -0.04465,-0.11703 -0.04465,-2.039375 0,-1.922344 9.94e-4,-1.967772 0.04465,-2.039374 0.02456,-0.04028 0.07761,-0.09371 0.117884,-0.118738 0.07143,-0.04438 0.100682,-0.04531 1.185508,-0.03773 1.078418,0.0075 1.117398,0.0093 1.28064,0.05854 0.234603,0.07073 0.409312,0.1695 0.551748,0.311936 0.333337,0.333337 0.393589,0.874633 0.143439,1.288645 -0.05191,0.08591 -0.124983,0.180155 -0.162388,0.209428 l -0.06801,0.05322 0.121589,0.06064 c 0.157252,0.07842 0.378821,0.30467 0.451898,0.461444 0.202872,0.435228 0.134274,0.996156 -0.166598,1.362278 -0.208223,0.25338 -0.476494,0.414794 -0.860286,0.517621 l -0.224702,0.0602 -1.089804,0.0079 c -1.063211,0.0077 -1.09159,0.0067 -1.163037,-0.03775 z m 1.976906,-0.95535 c 0.190004,-0.06841 0.286306,-0.23204 0.258512,-0.439254 -0.01614,-0.120321 -0.08693,-0.21091 -0.213053,-0.272628 -0.09418,-0.04609 -0.146443,-0.05313 -0.449247,-0.06051 l -0.34267,-0.0084 v 0.420929 0.42093 l 0.3202,-0.01147 c 0.219602,-0.0079 0.353521,-0.02346 0.426258,-0.04965 z m -0.189359,-1.742238 c 0.143691,-0.08076 0.206887,-0.187613 0.206887,-0.349813 0,-0.267182 -0.153649,-0.383695 -0.536769,-0.407035 L 38.925522,17.8726 v 0.422038 0.422038 l 0.23159,-0.0103 c 0.18903,-0.0084 0.248851,-0.02 0.325509,-0.06309 z m 6.436537,2.696627 c -0.0403,-0.02456 -0.0933,-0.07761 -0.11788,-0.117884 -0.0437,-0.0716 -0.0447,-0.11703 -0.0447,-2.039375 0,-1.922344 9.9e-4,-1.967772 0.0447,-2.039374 0.0893,-0.146466 0.14606,-0.162551 0.57311,-0.162409 0.38126,1.27e-4 0.38221,2.53e-4 0.49685,0.06601 0.0632,0.03623 0.13901,0.09493 0.16853,0.13043 0.0295,0.0355 0.39746,0.55161 0.81765,1.146903 l 0.76399,1.082352 0.0112,-1.107273 c 0.0125,-1.228295 0.006,-1.178364 0.16413,-1.274761 0.063,-0.03843 0.11443,-0.04378 0.4201,-0.04378 0.38978,0 0.45168,0.01865 0.5394,0.162536 0.0437,0.0716 0.0447,0.11703 0.0447,2.039374 0,1.922345 -9.9e-4,1.967773 -0.0447,2.039375 -0.0895,0.14684 -0.14542,0.162525 -0.57945,0.162619 -0.42693,9.3e-5 -0.47858,-0.0111 -0.61869,-0.134126 -0.0454,-0.03983 -0.42888,-0.558974 -0.85224,-1.153647 l -0.76975,-1.081225 -0.0112,1.078823 c -0.0125,1.196527 -0.006,1.150101 -0.16413,1.246308 -0.063,0.03843 -0.11442,0.04378 -0.4201,0.04378 -0.30798,0 -0.35676,-0.0052 -0.42152,-0.04465 z M 19.790309,18.578498 c -0.07185,-0.04382 -0.314702,-0.306344 -0.362493,-0.391866 -0.01501,-0.02686 -0.02729,-0.08423 -0.02729,-0.127485 0,-0.103184 0.02072,-0.136687 0.23842,-0.385416 0.917906,-1.048761 1.496343,-2.276255 1.713758,-3.636747 0.466185,-2.917185 -0.882921,-5.8245069 -3.408111,-7.3444799 -1.461225,-0.879547 -3.191827,-1.214769 -4.882251,-0.945703 -1.182238,0.188177 -2.38448,0.706185 -3.2742479,1.410772 -0.06777,0.05367 -0.159158,0.112593 -0.203074,0.130942 -0.127965,0.05347 -0.238192,-0.0021 -0.445912,-0.224633 -0.201729,-0.216153 -0.245682,-0.294427 -0.224743,-0.400235 0.01981,-0.100125 0.05954,-0.144207 0.284471,-0.31569 1.1329309,-0.863718 2.4814029,-1.410666 3.9533859,-1.603518 0.379444,-0.04971 1.284437,-0.0682 1.666192,-0.03403 1.242518,0.111199 2.358236,0.453755 3.3896,1.040698 1.685676,0.959308 2.959257,2.452845 3.635794,4.2637179 0.223523,0.598297 0.386474,1.278291 0.468467,1.954906 0.05486,0.452697 0.05471,1.391964 -2.86e-4,1.842555 -0.208598,1.708998 -0.874757,3.217704 -1.980889,4.486285 -0.281116,0.322401 -0.383896,0.375603 -0.54079,0.27993 z m -2.556606,-2.749516 c -0.270885,-0.274178 -0.599946,-0.646626 -0.621586,-0.703542 -0.04771,-0.1255 -0.02672,-0.217722 0.09199,-0.404034 0.295265,-0.463413 0.444657,-0.898124 0.490036,-1.425938 0.07662,-0.89115 -0.24141,-1.752234 -0.884776,-2.3956 -0.703397,-0.703397 -1.696193,-1.0175029 -2.684389,-0.8493 -0.232284,0.03954 -0.578038,0.158838 -0.843517,0.291051 -0.160661,0.08001 -0.312335,0.145164 -0.337052,0.144783 -0.117924,-0.0018 -0.231985,-0.09037 -0.515856,-0.400465 -0.160134,-0.1749289 -0.30018,-0.3341829 -0.311212,-0.3538959 -0.0351,-0.06272 -0.02166,-0.18483 0.02802,-0.2546 0.101599,-0.142683 0.77241,-0.497217 1.147335,-0.606385 0.653964,-0.190417 0.758272,-0.20503 1.448737,-0.202965 0.48867,0.0015 0.726652,0.02395 1.011748,0.0956 0.07415,0.01863 0.180323,0.0453 0.235937,0.05925 0.434965,0.10913 0.995434,0.392615 1.428934,0.722756 0.394311,0.300295 0.815355,0.7611319 1.070734,1.1719309 0.122593,0.1972 0.354045,0.666494 0.354045,0.717863 0,0.017 0.0089,0.04051 0.01969,0.05225 0.01771,0.0192 0.08743,0.224202 0.125712,0.369635 0.0081,0.0309 0.03405,0.129522 0.05759,0.219169 0.06829,0.260059 0.08915,0.499095 0.08868,1.016101 -5.21e-4,0.566351 -0.02111,0.750327 -0.128332,1.146569 -0.0898,0.331871 -0.133841,0.449278 -0.307645,0.820162 -0.162604,0.346983 -0.484568,0.818089 -0.599837,0.877697 -0.0344,0.01779 -0.09938,0.03235 -0.14439,0.03235 -0.07061,0 -0.10088,-0.01927 -0.220594,-0.140438 z m 16.343915,-1.555921 c -0.220841,-0.04951 -0.495563,-0.195265 -0.66265,-0.351567 -0.352813,-0.330039 -0.516178,-0.770564 -0.515475,-1.390012 6.17e-4,-0.543825 0.110614,-0.915852 0.364222,-1.231854 0.285534,-0.355781 0.681761,-0.54329 1.148032,-0.54329 0.895336,0 1.508426,0.674794 1.508426,1.660241 0,0.173716 -0.0079,0.231976 -0.03531,0.259354 -0.03122,0.03122 -0.174411,0.03531 -1.23586,0.03531 h -1.20055 v 0.05145 c 0,0.187026 0.150576,0.537867 0.304159,0.708688 0.201928,0.224593 0.426521,0.306804 0.796509,0.29156 0.210858,-0.0087 0.257386,-0.01842 0.394953,-0.08262 0.198853,-0.0928 0.312,-0.202883 0.371227,-0.361184 0.02556,-0.06832 0.05836,-0.131772 0.07288,-0.14101 0.01453,-0.0092 0.102524,-0.01695 0.195553,-0.01714 0.285163,-5.8e-4 0.31808,0.0592 0.201762,0.366422 -0.115196,0.304261 -0.421168,0.583563 -0.766618,0.699795 -0.162107,0.05454 -0.231004,0.06449 -0.49186,0.07101 -0.209147,0.0052 -0.348703,-0.0026 -0.449404,-0.02516 z m 1.270091,-2.21146 c -0.08247,-0.312614 -0.271521,-0.557476 -0.526919,-0.682459 -0.140276,-0.06865 -0.16072,-0.07228 -0.406119,-0.07229 -0.233511,0 -0.270824,0.0058 -0.387284,0.0604 -0.07088,0.03322 -0.164343,0.08745 -0.20769,0.120514 -0.137722,0.105046 -0.302403,0.390493 -0.361787,0.627097 l -0.01433,0.05709 h 0.96662 0.96662 z m 3.65088,2.21146 c -0.220842,-0.04951 -0.495564,-0.195265 -0.662651,-0.351567 -0.352813,-0.330039 -0.516178,-0.770564 -0.515475,-1.390012 6.17e-4,-0.543825 0.110614,-0.915852 0.364223,-1.231854 0.285533,-0.355781 0.68176,-0.54329 1.148031,-0.54329 0.895336,0 1.508427,0.674794 1.508427,1.660241 0,0.173716 -0.0079,0.231976 -0.03531,0.259354 -0.03122,0.03122 -0.174411,0.03531 -1.23586,0.03531 h -1.20055 v 0.05145 c 0,0.187026 0.150576,0.537867 0.304159,0.708688 0.201929,0.224593 0.426521,0.306804 0.796509,0.29156 0.210858,-0.0087 0.257387,-0.01842 0.394953,-0.08262 0.198853,-0.0928 0.312,-0.202883 0.371228,-0.361184 0.02556,-0.06832 0.05836,-0.131772 0.07288,-0.14101 0.01453,-0.0092 0.102524,-0.01695 0.195554,-0.01714 0.285163,-5.8e-4 0.318079,0.0592 0.201761,0.366422 -0.115196,0.304261 -0.421168,0.583563 -0.766617,0.699795 -0.162107,0.05454 -0.231005,0.06449 -0.491861,0.07101 -0.209147,0.0052 -0.348703,-0.0026 -0.449403,-0.02516 z m 1.270091,-2.21146 c -0.08247,-0.312614 -0.271522,-0.557476 -0.52692,-0.682459 -0.140276,-0.06865 -0.16072,-0.07228 -0.406119,-0.07229 -0.233511,0 -0.270823,0.0058 -0.387284,0.0604 -0.07088,0.03322 -0.164342,0.08745 -0.207689,0.120514 -0.137723,0.105046 -0.302404,0.390493 -0.361788,0.627097 l -0.01433,0.05709 h 0.96662 0.96662 z m 2.176218,2.200563 c -0.532212,-0.139534 -0.895582,-0.533935 -1.0459,-1.135222 -0.0427,-0.170806 -0.05061,-0.263337 -0.0509,-0.59546 -2.92e-4,-0.33832 0.0069,-0.421466 0.0516,-0.59546 0.186337,-0.725467 0.67129,-1.139474 1.373873,-1.172881 0.66401,-0.03157 1.1666,0.295242 1.33483,0.867995 0.0706,0.240415 0.0442,0.271181 -0.23264,0.271181 -0.21332,0 -0.23339,-0.0095 -0.26094,-0.123712 -0.0778,-0.322353 -0.3755,-0.499428 -0.80334,-0.47777 -0.26609,0.01347 -0.424485,0.07356 -0.588147,0.223141 -0.252883,0.231121 -0.363482,0.589761 -0.341884,1.108622 0.02305,0.553837 0.197012,0.885637 0.551505,1.051917 0.127496,0.0598 0.181566,0.07148 0.365626,0.07899 0.41797,0.01705 0.72083,-0.144616 0.80553,-0.429983 0.0434,-0.146273 0.0512,-0.15041 0.28174,-0.15041 0.25983,0 0.27745,0.01425 0.23764,0.192145 -0.0688,0.307672 -0.31335,0.63696 -0.57929,0.780182 -0.27691,0.149138 -0.75901,0.195939 -1.09931,0.10672 z m 3.10089,0.0014 c -0.44218,-0.119771 -0.77983,-0.429244 -0.95815,-0.878206 -0.18775,-0.472685 -0.19031,-1.206883 -0.006,-1.69674 0.11489,-0.305252 0.35845,-0.597735 0.62296,-0.748114 0.2304,-0.13099 0.41916,-0.173055 0.77091,-0.1718 0.29071,0.001 0.32915,0.0063 0.50657,0.06876 0.45977,0.161968 0.74974,0.482753 0.91255,1.009526 0.0598,0.193609 0.0623,0.220072 0.0623,0.684504 0,0.464433 -0.002,0.490895 -0.0623,0.684504 -0.0917,0.296622 -0.2033,0.492727 -0.38535,0.677011 -0.28905,0.292589 -0.53471,0.392163 -1.00006,0.405345 -0.24869,0.007 -0.33221,7.76e-4 -0.4635,-0.03479 z m 0.83377,-0.574324 c 0.17402,-0.08398 0.32333,-0.23509 0.412,-0.416969 0.11483,-0.23555 0.14727,-0.398712 0.14727,-0.74078 0,-0.598094 -0.1835,-0.97366 -0.56233,-1.150937 -0.12087,-0.05656 -0.18458,-0.07091 -0.35414,-0.07978 -0.5186,-0.02713 -0.8519,0.227075 -0.99496,0.758847 -0.0545,0.20272 -0.055,0.739999 -8.2e-4,0.939022 0.0835,0.306561 0.23413,0.530243 0.43732,0.649323 0.16793,0.09841 0.26687,0.119234 0.53415,0.112412 0.21913,-0.0056 0.26242,-0.01367 0.38151,-0.07113 z m 2.48344,0.583329 c -0.0803,-0.01641 -0.19123,-0.04612 -0.24643,-0.06602 -0.33767,-0.121708 -0.58852,-0.412541 -0.6643,-0.770184 -0.0405,-0.191163 -0.0412,-0.177631 0.0119,-0.230764 0.0372,-0.03724 0.0749,-0.04494 0.21971,-0.04494 0.18523,0 0.27444,0.03505 0.27486,0.108008 3.5e-4,0.06103 0.1014,0.258355 0.15978,0.31201 0.0295,0.02709 0.11424,0.07721 0.18835,0.111361 0.11945,0.05504 0.16715,0.06315 0.41985,0.07132 0.24473,0.0079 0.30763,0.0024 0.4442,-0.0391 0.27669,-0.08404 0.43279,-0.290325 0.3939,-0.520526 -0.0369,-0.218118 -0.21033,-0.304449 -1.10072,-0.547774 -0.39062,-0.106746 -0.62544,-0.223255 -0.77103,-0.382557 -0.1521,-0.166422 -0.19519,-0.295571 -0.19519,-0.585009 0,-0.209064 0.005,-0.235887 0.0737,-0.374911 0.0777,-0.15793 0.23826,-0.323996 0.38603,-0.399378 0.044,-0.02247 0.1558,-0.06463 0.24834,-0.09369 0.14793,-0.04645 0.21169,-0.05273 0.52778,-0.05204 0.39556,8.67e-4 0.60597,0.04209 0.82596,0.161831 0.22166,0.12064 0.39202,0.379952 0.41482,0.631422 0.0159,0.174847 -0.002,0.18685 -0.26589,0.178667 -0.23251,-0.0072 -0.2013,0.014 -0.30711,-0.208722 -0.0327,-0.06887 -0.072,-0.104938 -0.16802,-0.154288 -0.10889,-0.05597 -0.15782,-0.06595 -0.37327,-0.07616 -0.28697,-0.0136 -0.48276,0.017 -0.63207,0.0988 -0.13072,0.07161 -0.18462,0.147259 -0.19704,0.276523 -0.009,0.08985 -0.001,0.114881 0.0539,0.180296 0.092,0.109299 0.36312,0.227362 0.79479,0.346061 0.66019,0.18154 0.8294,0.258956 1.02296,0.468023 0.16082,0.173704 0.19858,0.297247 0.18666,0.610711 -0.008,0.198628 -0.0177,0.24675 -0.0804,0.380242 -0.14,0.298007 -0.45899,0.534035 -0.82583,0.611054 -0.19328,0.04058 -0.62094,0.04044 -0.82016,-2.63e-4 z m -16.999529,-0.04663 c -0.212721,-0.07553 -0.350496,-0.272491 -0.39151,-0.559702 -0.0124,-0.08685 -0.02266,-0.637825 -0.02291,-1.230242 l -4.45e-4,-1.072951 h -0.166922 c -0.224444,0 -0.237541,-0.01471 -0.237541,-0.266754 0,-0.122587 0.01011,-0.206243 0.02696,-0.223096 0.01636,-0.01636 0.09587,-0.02697 0.202231,-0.02697 H 30.9486 V 10.45749 c 0,-0.272388 0.0081,-0.396804 0.02696,-0.415698 0.04287,-0.04287 0.432609,-0.03606 0.47701,0.0083 0.02932,0.02932 0.03531,0.09985 0.03531,0.415698 v 0.380388 h 0.231443 c 0.150051,0 0.240926,0.0095 0.258407,0.02697 0.01685,0.01685 0.02696,0.100509 0.02696,0.223096 0,0.261401 -0.0059,0.266754 -0.293717,0.266754 h -0.223097 v 1.034913 c 0,0.677054 0.0085,1.068794 0.02467,1.132896 0.03927,0.155951 0.09626,0.193426 0.31594,0.207746 0.10309,0.0067 0.200076,0.02223 0.215524,0.03447 0.03781,0.02996 0.03877,0.424018 0.0011,0.461661 -0.03956,0.03956 -0.564561,0.03279 -0.681683,-0.0088 z m 4.780244,-0.03615 c -0.03912,-0.03912 -0.03912,-4.6032209 0,-4.6423399 0.04266,-0.04266 0.410286,-0.03591 0.45454,0.0083 0.03164,0.03164 0.03531,0.273076 0.03531,2.3211699 0,1.74793 -0.0063,2.292205 -0.02696,2.312824 -0.01702,0.01702 -0.102364,0.02696 -0.231443,0.02696 -0.129079,0 -0.214421,-0.0099 -0.231443,-0.02696 z"
       id="path1" /></g></svg>
